# xmcd
#
# Track frame offsets:
#	150
#	17284
#	33064
#	46445
#	67801
#	77614
#	95284
#	110302
#	129983
#	132179
#	137738
#	143246
#	149705
#	156050
#	171380
#	189148
#	205637
#	226351
#	231283
#	235106
#	237429
#	240590
#	243131
#	245345
#	248467
#	252868
#	255151
#	273524
#	276512
#	281608
#	284481
#	287435
#	292193
#	296379
#
# Disc length: 4120 seconds
#
# Revision: 1
# Processed by: cddbd v1.5.1PL0 Copyright (c) Steve Scherf et al.
# Submitted via: audiograbber 1.80
#
DISCID=df101622
DTITLE=Various Artist - Hie' Kommie Partie
DYEAR=1900
DGENRE=
TTITLE0=Die Campbells - Speedy Gonzales
TTITLE1=Bad Boys Blue - Under the boardwalk
TTITLE2=DJ Bobo - Chihuahua
TTITLE3=Papa - Pampoen
TTITLE4=Die Stokstyf Dansorkes - Jubilee(Die Toilet Tune)
TTITLE5=Blackie Swart - Toe Word Ons Dors
TTITLE6=Right Said Fred - Love Song
TTITLE7=Wickus van der Merwe - Hie' Kommie Partie, Balle Balle
TTITLE8=The Wild Boys - No Limits
TTITLE9=The Wild Boys - You promise me
TTITLE10=The Wild Boys - Sex Bomb
TTITLE11=The Wild Boys - Wild Boys
TTITLE12=The Wild Boys - Stand Up(for the champions)
TTITLE13=Die Campbells - Burger Dans
TTITLE14=Bakgat Bênd - Boeta ons gaan Rugby kyk
TTITLE15=Kurt Darren - My I.O. Meisie
TTITLE16=DJ RK - Dancing with tears in my eyes
TTITLE17=Jacques de Koning - Daisy
TTITLE18=Jacques de Koning - Stoksiel alleen
TTITLE19=Jacques de Koning - Die trane die rol oor jou bokkie
TTITLE20=Jacques de Koning - Druk my vas
TTITLE21=Dance D'Amour - Impi
TTITLE22=Dance D'Amour - Ole Ole Ole
TTITLE23=Dance D'Amour - Hey Baby
TTITLE24=Dance D'Amour - Don't you just know it
TTITLE25=Dance D'Amour - Na Na Hey Hey Kiss Him Goodbey
TTITLE26=DJ Thump - If I Could Turn Back Time
TTITLE27=Die Bokjollers - Shadoogie
TTITLE28=Die Bokjollers - Long legged woman dressed in black
TTITLE29=Die Bokjollers - Can't buy me love
TTITLE30=Die Bokjollers - Hound Dog
TTITLE31=Die Bokjollers - Rock around the clock
TTITLE32=Die Bokjollers - Alright Alright Alright
TTITLE33=Die Bokjollers - Braai
EXTD=Afrikaans
EXTT0=
EXTT1=
EXTT2=
EXTT3=
EXTT4=
EXTT5=
EXTT6=
EXTT7=
EXTT8=
EXTT9=
EXTT10=
EXTT11=
EXTT12=
EXTT13=
EXTT14=
EXTT15=
EXTT16=
EXTT17=
EXTT18=
EXTT19=
EXTT20=
EXTT21=
EXTT22=
EXTT23=
EXTT24=
EXTT25=
EXTT26=
EXTT27=
EXTT28=
EXTT29=
EXTT30=
EXTT31=
EXTT32=
EXTT33=
PLAYORDER=
